<mxfile host="65bd71144e">
    <diagram id="LkOLhtlD8wp5TjMrqrVK" name="Page-1">
        <mxGraphModel dx="915" dy="522" grid="0" gridSize="10" guides="1" tooltips="1" connect="1" arrows="1" fold="1" page="1" pageScale="1" pageWidth="827" pageHeight="1169" background="#ffffff" math="0" shadow="0">
            <root>
                <mxCell id="0"/>
                <mxCell id="1" parent="0"/>
                <mxCell id="7" value="B" style="rounded=0;whiteSpace=wrap;html=1;strokeColor=#000000;fontColor=#000000;fillColor=none;" parent="1" vertex="1">
                    <mxGeometry x="126" y="103" width="76" height="26" as="geometry"/>
                </mxCell>
                <mxCell id="8" value="B类虚函数表vtable" style="swimlane;fontStyle=0;childLayout=stackLayout;horizontal=1;startSize=30;horizontalStack=0;resizeParent=1;resizeParentMax=0;resizeLast=0;collapsible=1;marginBottom=0;whiteSpace=wrap;html=1;strokeColor=#000000;fontColor=#000000;fillColor=none;swimlaneFillColor=none;" parent="1" vertex="1">
                    <mxGeometry x="253" y="118" width="140" height="120" as="geometry"/>
                </mxCell>
                <mxCell id="9" value="B::Func1()" style="text;strokeColor=#006EAF;fillColor=#1ba1e2;align=left;verticalAlign=middle;spacingLeft=4;spacingRight=4;overflow=hidden;points=[[0,0.5],[1,0.5]];portConstraint=eastwest;rotatable=0;whiteSpace=wrap;html=1;fontColor=#ffffff;rounded=0;" parent="8" vertex="1">
                    <mxGeometry y="30" width="140" height="30" as="geometry"/>
                </mxCell>
                <mxCell id="10" value="B::Func2()" style="text;strokeColor=#006EAF;fillColor=#1ba1e2;align=left;verticalAlign=middle;spacingLeft=4;spacingRight=4;overflow=hidden;points=[[0,0.5],[1,0.5]];portConstraint=eastwest;rotatable=0;whiteSpace=wrap;html=1;fontColor=#ffffff;" parent="8" vertex="1">
                    <mxGeometry y="60" width="140" height="30" as="geometry"/>
                </mxCell>
                <mxCell id="11" value="B::~B()" style="text;strokeColor=#006EAF;fillColor=#1ba1e2;align=left;verticalAlign=middle;spacingLeft=4;spacingRight=4;overflow=hidden;points=[[0,0.5],[1,0.5]];portConstraint=eastwest;rotatable=0;whiteSpace=wrap;html=1;fontColor=#ffffff;" parent="8" vertex="1">
                    <mxGeometry y="90" width="140" height="30" as="geometry"/>
                </mxCell>
                <mxCell id="14" style="edgeStyle=none;html=1;exitX=1;exitY=0.5;exitDx=0;exitDy=0;entryX=0;entryY=0.25;entryDx=0;entryDy=0;fontColor=#000000;strokeColor=#000000;" parent="1" source="13" target="8" edge="1">
                    <mxGeometry relative="1" as="geometry"/>
                </mxCell>
                <mxCell id="13" value="B::__vfptr" style="rounded=0;whiteSpace=wrap;html=1;strokeColor=#000000;fontColor=#000000;fillColor=none;" parent="1" vertex="1">
                    <mxGeometry x="126" y="129" width="76" height="38" as="geometry"/>
                </mxCell>
                <mxCell id="22" style="edgeStyle=none;html=1;exitX=0.5;exitY=0;exitDx=0;exitDy=0;entryX=0.5;entryY=1;entryDx=0;entryDy=0;strokeColor=#000000;fontColor=#000000;" parent="1" source="15" target="13" edge="1">
                    <mxGeometry relative="1" as="geometry"/>
                </mxCell>
                <mxCell id="15" value="C" style="rounded=0;whiteSpace=wrap;html=1;strokeColor=#000000;fontColor=#000000;fillColor=none;" parent="1" vertex="1">
                    <mxGeometry x="126" y="264" width="76" height="26" as="geometry"/>
                </mxCell>
                <mxCell id="21" style="edgeStyle=none;html=1;exitX=1;exitY=0.5;exitDx=0;exitDy=0;strokeColor=#000000;fontColor=#000000;entryX=0;entryY=0.25;entryDx=0;entryDy=0;" parent="1" source="16" target="17" edge="1">
                    <mxGeometry relative="1" as="geometry"/>
                </mxCell>
                <mxCell id="16" value="C::__vfptr" style="rounded=0;whiteSpace=wrap;html=1;strokeColor=#000000;fontColor=#000000;fillColor=none;" parent="1" vertex="1">
                    <mxGeometry x="126" y="290" width="76" height="38" as="geometry"/>
                </mxCell>
                <mxCell id="17" value="C类虚函数表vtable" style="swimlane;fontStyle=0;childLayout=stackLayout;horizontal=1;startSize=30;horizontalStack=0;resizeParent=1;resizeParentMax=0;resizeLast=0;collapsible=1;marginBottom=0;whiteSpace=wrap;html=1;strokeColor=#000000;fontColor=#000000;fillColor=none;" parent="1" vertex="1">
                    <mxGeometry x="256" y="279" width="140" height="120" as="geometry"/>
                </mxCell>
                <mxCell id="18" value="B::Func1()" style="text;strokeColor=#006EAF;fillColor=#1ba1e2;align=left;verticalAlign=middle;spacingLeft=4;spacingRight=4;overflow=hidden;points=[[0,0.5],[1,0.5]];portConstraint=eastwest;rotatable=0;whiteSpace=wrap;html=1;fontColor=#ffffff;" parent="17" vertex="1">
                    <mxGeometry y="30" width="140" height="30" as="geometry"/>
                </mxCell>
                <mxCell id="19" value="C::Func2()" style="text;strokeColor=#B09500;fillColor=#e3c800;align=left;verticalAlign=middle;spacingLeft=4;spacingRight=4;overflow=hidden;points=[[0,0.5],[1,0.5]];portConstraint=eastwest;rotatable=0;whiteSpace=wrap;html=1;fontColor=#000000;" parent="17" vertex="1">
                    <mxGeometry y="60" width="140" height="30" as="geometry"/>
                </mxCell>
                <mxCell id="20" value="C::~C()" style="text;strokeColor=#B09500;fillColor=#e3c800;align=left;verticalAlign=middle;spacingLeft=4;spacingRight=4;overflow=hidden;points=[[0,0.5],[1,0.5]];portConstraint=eastwest;rotatable=0;whiteSpace=wrap;html=1;fontColor=#000000;" parent="17" vertex="1">
                    <mxGeometry y="90" width="140" height="30" as="geometry"/>
                </mxCell>
                <mxCell id="23" style="edgeStyle=none;html=1;exitX=1;exitY=0.5;exitDx=0;exitDy=0;entryX=1;entryY=0.5;entryDx=0;entryDy=0;strokeColor=#000000;fontColor=#000000;" parent="1" source="18" target="9" edge="1">
                    <mxGeometry relative="1" as="geometry">
                        <Array as="points">
                            <mxPoint x="413" y="316"/>
                            <mxPoint x="423" y="303"/>
                            <mxPoint x="436" y="273"/>
                            <mxPoint x="438" y="243"/>
                            <mxPoint x="436" y="215"/>
                            <mxPoint x="426" y="189"/>
                            <mxPoint x="413" y="175"/>
                        </Array>
                    </mxGeometry>
                </mxCell>
            </root>
        </mxGraphModel>
    </diagram>
</mxfile>